. 
 
http://www.torrenting.com          :     Once & For all ;)


               www . Torrenting . Com 

(((((((((((((= Enjoy No RAR releases =))))))))))))))))))))


...................................NFO:....................................

.[img]http://img14.imageshack.us/img14/4652/dontbeafraidofthedarkbl.jpg[/img]


[color=blue][size=5][b]Dont.Be.Afraid.Of.The.Dark.2010.BDRip.XVID.AC3.HQ.Hive-CM8[/b][/size][/color]


[b]Thx Hive

CM8 Doing It Right The First Time :D


Source: Bluray

Video: 720x384 @bitrate 1700 2pass
Audio: English DTS to AC3 5.1 @448
Sample: Yes, included
Subs: Yes, english in srt /subs[/b]
 
http://www.imdb.com/title/tt1270761/


General
Complete name                  : Dont.Be.Afraid.Of.The.Dark.2010.BDRip.XVID.AC3.HQ.Hive-CM8.avi
Format                         : AVI
Format/Info                    : Audio Video Interleave
File size                      : 1.50 GiB
Duration                       : 1h 39mn
Overall bit rate               : 2 158 Kbps
Writing application            : Nandub v1.0rc2
Writing library                : Nandub build 1853/release

Video
ID                             : 0
Format                         : MPEG-4 Visual
Format profile                 : Advanced Simple@L5
Format settings, BVOP          : 1
Format settings, QPel          : Yes
Format settings, GMC           : No warppoints
Format settings, Matrix        : Default (H.263)
Muxing mode                    : Packed bitstream
Codec ID                       : XVID
Codec ID/Hint                  : XviD
Duration                       : 1h 39mn
Bit rate                       : 1 701 Kbps
Width                          : 720 pixels
Height                         : 384 pixels
Display aspect ratio           : 1.850
Frame rate                     : 23.976 fps
Color space                    : YUV
Chroma subsampling             : 4:2:0
Bit depth                      : 8 bits
Scan type                      : Progressive
Compression mode               : Lossy
Bits/(Pixel*Frame)             : 0.257
Stream size                    : 1.18 GiB (79%)
Writing library                : XviD 1.2.1 (UTC 2008-12-04)

Audio
ID                             : 1
Format                         : AC-3
Format/Info                    : Audio Coding 3
Mode extension                 : CM (complete main)
Codec ID                       : 2000
Duration                       : 1h 39mn
Bit rate mode                  : Constant
Bit rate                       : 448 Kbps
Channel(s)                     : 6 channels
Channel positions              : Front: L C R, Side: L R, LFE
Sampling rate                  : 48.0 KHz
Bit depth                      : 16 bits
Compression mode               : Lossy
Stream size                    : 319 MiB (21%)
Alignment                      : Split accross interleaves
Interleave, duration           : 42 ms (1.00 video frame)
Interleave, preload duration   : 500 ms


Plot:
A young girl, sent to live with her father and his new girlfriend, discovers
creatures in her new home who want to claim her as one of their own.


Cast:
Katie Holmes     ...    Kim
Guy Pearce       ...    Alex
Bailee Madison   ...    Sally
Jack Thompson    ...    Harris


[img]http://img32.imageshack.us/img32/3236/12156539.png[/img]
[img]http://img812.imageshack.us/img812/4610/doddododdooo.png[/img]
[img]http://img17.imageshack.us/img17/1092/doddododoo.png[/img]
[img]http://img854.imageshack.us/img854/2195/doddodoo.png[/img]
[img]http://img851.imageshack.us/img851/8686/doddoo.png[/img]
[img]http://img543.imageshack.us/img543/9489/dodoh.png[/img]



Greetz

ViSiON,SPK,SANTi,3LT0N,FUSiON,YanKeeS,MAGNET,Feel-Free,THC,LKRG,BHRG
FANTASIA-PLAY,FANTASIA-M,FLAWL3SS,WBZ,ZMG,NOVA,D2U,Vik,Rapeseed
T0XiC,SAFC,goldadvance,MEMORY100,KaN1vE,Unevano,Pinnz,Wayne
Mr Hive,and most P2P groups
Great Work Guys :D

LOOKING FOR ANYTHING YOU WANT TO LOOK AND SOUND BETTER

CM8@hushmail.com